<svg xmlns="http://www.w3.org/2000/svg" xmlns:xlink="http://www.w3.org/1999/xlink" data-stacking-context="true" aria-owns="w-full1" width="542" height="542" viewBox="464 -102 542 542"><!-- Generated by dom-to-svg from https://www.element-to-svg.com/ --><style>@font-face { font-family: __Montserrat_337041; font-style: normal; font-weight: 100; font-display: swap; src: url("https://www.element-to-svg.com/_next/static/media/b1f344208eb4edfe-s.woff2") format("woff2"); unicode-range: U+460-52F, U+1C80-1C8A, U+20B4, U+2DE0-2DFF, U+A640-A69F, U+FE2E-FE2F; }
@font-face { font-family: __Montserrat_337041; font-style: normal; font-weight: 100; font-display: swap; src: url("https://www.element-to-svg.com/_next/static/media/48e2044251ef3125-s.woff2") format("woff2"); unicode-range: U+301, U+400-45F, U+490-491, U+4B0-4B1, U+2116; }
@font-face { font-family: __Montserrat_337041; font-style: normal; font-weight: 100; font-display: swap; src: url("https://www.element-to-svg.com/_next/static/media/bf24a9759715e608-s.woff2") format("woff2"); unicode-range: U+102-103, U+110-111, U+128-129, U+168-169, U+1A0-1A1, U+1AF-1B0, U+300-301, U+303-304, U+308-309, U+323, U+329, U+1EA0-1EF9, U+20AB; }
@font-face { font-family: __Montserrat_337041; font-style: normal; font-weight: 100; font-display: swap; src: url("https://www.element-to-svg.com/_next/static/media/1f173e5e25f3efee-s.woff2") format("woff2"); unicode-range: U+100-2BA, U+2BD-2C5, U+2C7-2CC, U+2CE-2D7, U+2DD-2FF, U+304, U+308, U+329, U+1D00-1DBF, U+1E00-1E9F, U+1EF2-1EFF, U+2020, U+20A0-20AB, U+20AD-20C0, U+2113, U+2C60-2C7F, U+A720-A7FF; }
@font-face { font-family: __Montserrat_337041; font-style: normal; font-weight: 100; font-display: swap; src: url("https://www.element-to-svg.com/_next/static/media/904be59b21bd51cb-s.p.woff2") format("woff2"); unicode-range: U+0-FF, U+131, U+152-153, U+2BB-2BC, U+2C6, U+2DA, U+2DC, U+304, U+308, U+329, U+2000-206F, U+20AC, U+2122, U+2191, U+2193, U+2212, U+2215, U+FEFF, U+FFFD; }
@font-face { font-family: __Montserrat_337041; font-style: normal; font-weight: 200; font-display: swap; src: url("https://www.element-to-svg.com/_next/static/media/b1f344208eb4edfe-s.woff2") format("woff2"); unicode-range: U+460-52F, U+1C80-1C8A, U+20B4, U+2DE0-2DFF, U+A640-A69F, U+FE2E-FE2F; }
@font-face { font-family: __Montserrat_337041; font-style: normal; font-weight: 200; font-display: swap; src: url("https://www.element-to-svg.com/_next/static/media/48e2044251ef3125-s.woff2") format("woff2"); unicode-range: U+301, U+400-45F, U+490-491, U+4B0-4B1, U+2116; }
@font-face { font-family: __Montserrat_337041; font-style: normal; font-weight: 200; font-display: swap; src: url("https://www.element-to-svg.com/_next/static/media/bf24a9759715e608-s.woff2") format("woff2"); unicode-range: U+102-103, U+110-111, U+128-129, U+168-169, U+1A0-1A1, U+1AF-1B0, U+300-301, U+303-304, U+308-309, U+323, U+329, U+1EA0-1EF9, U+20AB; }
@font-face { font-family: __Montserrat_337041; font-style: normal; font-weight: 200; font-display: swap; src: url("https://www.element-to-svg.com/_next/static/media/1f173e5e25f3efee-s.woff2") format("woff2"); unicode-range: U+100-2BA, U+2BD-2C5, U+2C7-2CC, U+2CE-2D7, U+2DD-2FF, U+304, U+308, U+329, U+1D00-1DBF, U+1E00-1E9F, U+1EF2-1EFF, U+2020, U+20A0-20AB, U+20AD-20C0, U+2113, U+2C60-2C7F, U+A720-A7FF; }
@font-face { font-family: __Montserrat_337041; font-style: normal; font-weight: 200; font-display: swap; src: url("https://www.element-to-svg.com/_next/static/media/904be59b21bd51cb-s.p.woff2") format("woff2"); unicode-range: U+0-FF, U+131, U+152-153, U+2BB-2BC, U+2C6, U+2DA, U+2DC, U+304, U+308, U+329, U+2000-206F, U+20AC, U+2122, U+2191, U+2193, U+2212, U+2215, U+FEFF, U+FFFD; }
@font-face { font-family: __Montserrat_337041; font-style: normal; font-weight: 300; font-display: swap; src: url("https://www.element-to-svg.com/_next/static/media/b1f344208eb4edfe-s.woff2") format("woff2"); unicode-range: U+460-52F, U+1C80-1C8A, U+20B4, U+2DE0-2DFF, U+A640-A69F, U+FE2E-FE2F; }
@font-face { font-family: __Montserrat_337041; font-style: normal; font-weight: 300; font-display: swap; src: url("https://www.element-to-svg.com/_next/static/media/48e2044251ef3125-s.woff2") format("woff2"); unicode-range: U+301, U+400-45F, U+490-491, U+4B0-4B1, U+2116; }
@font-face { font-family: __Montserrat_337041; font-style: normal; font-weight: 300; font-display: swap; src: url("https://www.element-to-svg.com/_next/static/media/bf24a9759715e608-s.woff2") format("woff2"); unicode-range: U+102-103, U+110-111, U+128-129, U+168-169, U+1A0-1A1, U+1AF-1B0, U+300-301, U+303-304, U+308-309, U+323, U+329, U+1EA0-1EF9, U+20AB; }
@font-face { font-family: __Montserrat_337041; font-style: normal; font-weight: 300; font-display: swap; src: url("https://www.element-to-svg.com/_next/static/media/1f173e5e25f3efee-s.woff2") format("woff2"); unicode-range: U+100-2BA, U+2BD-2C5, U+2C7-2CC, U+2CE-2D7, U+2DD-2FF, U+304, U+308, U+329, U+1D00-1DBF, U+1E00-1E9F, U+1EF2-1EFF, U+2020, U+20A0-20AB, U+20AD-20C0, U+2113, U+2C60-2C7F, U+A720-A7FF; }
@font-face { font-family: __Montserrat_337041; font-style: normal; font-weight: 300; font-display: swap; src: url("https://www.element-to-svg.com/_next/static/media/904be59b21bd51cb-s.p.woff2") format("woff2"); unicode-range: U+0-FF, U+131, U+152-153, U+2BB-2BC, U+2C6, U+2DA, U+2DC, U+304, U+308, U+329, U+2000-206F, U+20AC, U+2122, U+2191, U+2193, U+2212, U+2215, U+FEFF, U+FFFD; }
@font-face { font-family: __Montserrat_337041; font-style: normal; font-weight: 400; font-display: swap; src: url("https://www.element-to-svg.com/_next/static/media/b1f344208eb4edfe-s.woff2") format("woff2"); unicode-range: U+460-52F, U+1C80-1C8A, U+20B4, U+2DE0-2DFF, U+A640-A69F, U+FE2E-FE2F; }
@font-face { font-family: __Montserrat_337041; font-style: normal; font-weight: 400; font-display: swap; src: url("https://www.element-to-svg.com/_next/static/media/48e2044251ef3125-s.woff2") format("woff2"); unicode-range: U+301, U+400-45F, U+490-491, U+4B0-4B1, U+2116; }
@font-face { font-family: __Montserrat_337041; font-style: normal; font-weight: 400; font-display: swap; src: url("https://www.element-to-svg.com/_next/static/media/bf24a9759715e608-s.woff2") format("woff2"); unicode-range: U+102-103, U+110-111, U+128-129, U+168-169, U+1A0-1A1, U+1AF-1B0, U+300-301, U+303-304, U+308-309, U+323, U+329, U+1EA0-1EF9, U+20AB; }
@font-face { font-family: __Montserrat_337041; font-style: normal; font-weight: 400; font-display: swap; src: url("https://www.element-to-svg.com/_next/static/media/1f173e5e25f3efee-s.woff2") format("woff2"); unicode-range: U+100-2BA, U+2BD-2C5, U+2C7-2CC, U+2CE-2D7, U+2DD-2FF, U+304, U+308, U+329, U+1D00-1DBF, U+1E00-1E9F, U+1EF2-1EFF, U+2020, U+20A0-20AB, U+20AD-20C0, U+2113, U+2C60-2C7F, U+A720-A7FF; }
@font-face { font-family: __Montserrat_337041; font-style: normal; font-weight: 400; font-display: swap; src: url("https://www.element-to-svg.com/_next/static/media/904be59b21bd51cb-s.p.woff2") format("woff2"); unicode-range: U+0-FF, U+131, U+152-153, U+2BB-2BC, U+2C6, U+2DA, U+2DC, U+304, U+308, U+329, U+2000-206F, U+20AC, U+2122, U+2191, U+2193, U+2212, U+2215, U+FEFF, U+FFFD; }
@font-face { font-family: __Montserrat_337041; font-style: normal; font-weight: 500; font-display: swap; src: url("https://www.element-to-svg.com/_next/static/media/b1f344208eb4edfe-s.woff2") format("woff2"); unicode-range: U+460-52F, U+1C80-1C8A, U+20B4, U+2DE0-2DFF, U+A640-A69F, U+FE2E-FE2F; }
@font-face { font-family: __Montserrat_337041; font-style: normal; font-weight: 500; font-display: swap; src: url("https://www.element-to-svg.com/_next/static/media/48e2044251ef3125-s.woff2") format("woff2"); unicode-range: U+301, U+400-45F, U+490-491, U+4B0-4B1, U+2116; }
@font-face { font-family: __Montserrat_337041; font-style: normal; font-weight: 500; font-display: swap; src: url("https://www.element-to-svg.com/_next/static/media/bf24a9759715e608-s.woff2") format("woff2"); unicode-range: U+102-103, U+110-111, U+128-129, U+168-169, U+1A0-1A1, U+1AF-1B0, U+300-301, U+303-304, U+308-309, U+323, U+329, U+1EA0-1EF9, U+20AB; }
@font-face { font-family: __Montserrat_337041; font-style: normal; font-weight: 500; font-display: swap; src: url("https://www.element-to-svg.com/_next/static/media/1f173e5e25f3efee-s.woff2") format("woff2"); unicode-range: U+100-2BA, U+2BD-2C5, U+2C7-2CC, U+2CE-2D7, U+2DD-2FF, U+304, U+308, U+329, U+1D00-1DBF, U+1E00-1E9F, U+1EF2-1EFF, U+2020, U+20A0-20AB, U+20AD-20C0, U+2113, U+2C60-2C7F, U+A720-A7FF; }
@font-face { font-family: __Montserrat_337041; font-style: normal; font-weight: 500; font-display: swap; src: url("https://www.element-to-svg.com/_next/static/media/904be59b21bd51cb-s.p.woff2") format("woff2"); unicode-range: U+0-FF, U+131, U+152-153, U+2BB-2BC, U+2C6, U+2DA, U+2DC, U+304, U+308, U+329, U+2000-206F, U+20AC, U+2122, U+2191, U+2193, U+2212, U+2215, U+FEFF, U+FFFD; }
@font-face { font-family: __Montserrat_337041; font-style: normal; font-weight: 600; font-display: swap; src: url("https://www.element-to-svg.com/_next/static/media/b1f344208eb4edfe-s.woff2") format("woff2"); unicode-range: U+460-52F, U+1C80-1C8A, U+20B4, U+2DE0-2DFF, U+A640-A69F, U+FE2E-FE2F; }
@font-face { font-family: __Montserrat_337041; font-style: normal; font-weight: 600; font-display: swap; src: url("https://www.element-to-svg.com/_next/static/media/48e2044251ef3125-s.woff2") format("woff2"); unicode-range: U+301, U+400-45F, U+490-491, U+4B0-4B1, U+2116; }
@font-face { font-family: __Montserrat_337041; font-style: normal; font-weight: 600; font-display: swap; src: url("https://www.element-to-svg.com/_next/static/media/bf24a9759715e608-s.woff2") format("woff2"); unicode-range: U+102-103, U+110-111, U+128-129, U+168-169, U+1A0-1A1, U+1AF-1B0, U+300-301, U+303-304, U+308-309, U+323, U+329, U+1EA0-1EF9, U+20AB; }
@font-face { font-family: __Montserrat_337041; font-style: normal; font-weight: 600; font-display: swap; src: url("https://www.element-to-svg.com/_next/static/media/1f173e5e25f3efee-s.woff2") format("woff2"); unicode-range: U+100-2BA, U+2BD-2C5, U+2C7-2CC, U+2CE-2D7, U+2DD-2FF, U+304, U+308, U+329, U+1D00-1DBF, U+1E00-1E9F, U+1EF2-1EFF, U+2020, U+20A0-20AB, U+20AD-20C0, U+2113, U+2C60-2C7F, U+A720-A7FF; }
@font-face { font-family: __Montserrat_337041; font-style: normal; font-weight: 600; font-display: swap; src: url("https://www.element-to-svg.com/_next/static/media/904be59b21bd51cb-s.p.woff2") format("woff2"); unicode-range: U+0-FF, U+131, U+152-153, U+2BB-2BC, U+2C6, U+2DA, U+2DC, U+304, U+308, U+329, U+2000-206F, U+20AC, U+2122, U+2191, U+2193, U+2212, U+2215, U+FEFF, U+FFFD; }
@font-face { font-family: __Montserrat_337041; font-style: normal; font-weight: 700; font-display: swap; src: url("https://www.element-to-svg.com/_next/static/media/b1f344208eb4edfe-s.woff2") format("woff2"); unicode-range: U+460-52F, U+1C80-1C8A, U+20B4, U+2DE0-2DFF, U+A640-A69F, U+FE2E-FE2F; }
@font-face { font-family: __Montserrat_337041; font-style: normal; font-weight: 700; font-display: swap; src: url("https://www.element-to-svg.com/_next/static/media/48e2044251ef3125-s.woff2") format("woff2"); unicode-range: U+301, U+400-45F, U+490-491, U+4B0-4B1, U+2116; }
@font-face { font-family: __Montserrat_337041; font-style: normal; font-weight: 700; font-display: swap; src: url("https://www.element-to-svg.com/_next/static/media/bf24a9759715e608-s.woff2") format("woff2"); unicode-range: U+102-103, U+110-111, U+128-129, U+168-169, U+1A0-1A1, U+1AF-1B0, U+300-301, U+303-304, U+308-309, U+323, U+329, U+1EA0-1EF9, U+20AB; }
@font-face { font-family: __Montserrat_337041; font-style: normal; font-weight: 700; font-display: swap; src: url("https://www.element-to-svg.com/_next/static/media/1f173e5e25f3efee-s.woff2") format("woff2"); unicode-range: U+100-2BA, U+2BD-2C5, U+2C7-2CC, U+2CE-2D7, U+2DD-2FF, U+304, U+308, U+329, U+1D00-1DBF, U+1E00-1E9F, U+1EF2-1EFF, U+2020, U+20A0-20AB, U+20AD-20C0, U+2113, U+2C60-2C7F, U+A720-A7FF; }
@font-face { font-family: __Montserrat_337041; font-style: normal; font-weight: 700; font-display: swap; src: url("https://www.element-to-svg.com/_next/static/media/904be59b21bd51cb-s.p.woff2") format("woff2"); unicode-range: U+0-FF, U+131, U+152-153, U+2BB-2BC, U+2C6, U+2DA, U+2DC, U+304, U+308, U+329, U+2000-206F, U+20AC, U+2122, U+2191, U+2193, U+2212, U+2215, U+FEFF, U+FFFD; }
@font-face { font-family: __Montserrat_337041; font-style: normal; font-weight: 800; font-display: swap; src: url("https://www.element-to-svg.com/_next/static/media/b1f344208eb4edfe-s.woff2") format("woff2"); unicode-range: U+460-52F, U+1C80-1C8A, U+20B4, U+2DE0-2DFF, U+A640-A69F, U+FE2E-FE2F; }
@font-face { font-family: __Montserrat_337041; font-style: normal; font-weight: 800; font-display: swap; src: url("https://www.element-to-svg.com/_next/static/media/48e2044251ef3125-s.woff2") format("woff2"); unicode-range: U+301, U+400-45F, U+490-491, U+4B0-4B1, U+2116; }
@font-face { font-family: __Montserrat_337041; font-style: normal; font-weight: 800; font-display: swap; src: url("https://www.element-to-svg.com/_next/static/media/bf24a9759715e608-s.woff2") format("woff2"); unicode-range: U+102-103, U+110-111, U+128-129, U+168-169, U+1A0-1A1, U+1AF-1B0, U+300-301, U+303-304, U+308-309, U+323, U+329, U+1EA0-1EF9, U+20AB; }
@font-face { font-family: __Montserrat_337041; font-style: normal; font-weight: 800; font-display: swap; src: url("https://www.element-to-svg.com/_next/static/media/1f173e5e25f3efee-s.woff2") format("woff2"); unicode-range: U+100-2BA, U+2BD-2C5, U+2C7-2CC, U+2CE-2D7, U+2DD-2FF, U+304, U+308, U+329, U+1D00-1DBF, U+1E00-1E9F, U+1EF2-1EFF, U+2020, U+20A0-20AB, U+20AD-20C0, U+2113, U+2C60-2C7F, U+A720-A7FF; }
@font-face { font-family: __Montserrat_337041; font-style: normal; font-weight: 800; font-display: swap; src: url("https://www.element-to-svg.com/_next/static/media/904be59b21bd51cb-s.p.woff2") format("woff2"); unicode-range: U+0-FF, U+131, U+152-153, U+2BB-2BC, U+2C6, U+2DA, U+2DC, U+304, U+308, U+329, U+2000-206F, U+20AC, U+2122, U+2191, U+2193, U+2212, U+2215, U+FEFF, U+FFFD; }
@font-face { font-family: __Montserrat_337041; font-style: normal; font-weight: 900; font-display: swap; src: url("https://www.element-to-svg.com/_next/static/media/b1f344208eb4edfe-s.woff2") format("woff2"); unicode-range: U+460-52F, U+1C80-1C8A, U+20B4, U+2DE0-2DFF, U+A640-A69F, U+FE2E-FE2F; }
@font-face { font-family: __Montserrat_337041; font-style: normal; font-weight: 900; font-display: swap; src: url("https://www.element-to-svg.com/_next/static/media/48e2044251ef3125-s.woff2") format("woff2"); unicode-range: U+301, U+400-45F, U+490-491, U+4B0-4B1, U+2116; }
@font-face { font-family: __Montserrat_337041; font-style: normal; font-weight: 900; font-display: swap; src: url("https://www.element-to-svg.com/_next/static/media/bf24a9759715e608-s.woff2") format("woff2"); unicode-range: U+102-103, U+110-111, U+128-129, U+168-169, U+1A0-1A1, U+1AF-1B0, U+300-301, U+303-304, U+308-309, U+323, U+329, U+1EA0-1EF9, U+20AB; }
@font-face { font-family: __Montserrat_337041; font-style: normal; font-weight: 900; font-display: swap; src: url("https://www.element-to-svg.com/_next/static/media/1f173e5e25f3efee-s.woff2") format("woff2"); unicode-range: U+100-2BA, U+2BD-2C5, U+2C7-2CC, U+2CE-2D7, U+2DD-2FF, U+304, U+308, U+329, U+1D00-1DBF, U+1E00-1E9F, U+1EF2-1EFF, U+2020, U+20A0-20AB, U+20AD-20C0, U+2113, U+2C60-2C7F, U+A720-A7FF; }
@font-face { font-family: __Montserrat_337041; font-style: normal; font-weight: 900; font-display: swap; src: url("https://www.element-to-svg.com/_next/static/media/904be59b21bd51cb-s.p.woff2") format("woff2"); unicode-range: U+0-FF, U+131, U+152-153, U+2BB-2BC, U+2C6, U+2DA, U+2DC, U+304, U+308, U+329, U+2000-206F, U+20AC, U+2122, U+2191, U+2193, U+2212, U+2215, U+FEFF, U+FFFD; }
@font-face { font-family: __Montserrat_Fallback_337041; src: local("Arial"); ascent-override: 85.79%; descent-override: 22.25%; line-gap-override: 0%; size-adjust: 112.83%; }
@font-face { font-family: __Sora_1822b0; font-style: normal; font-weight: 100; font-display: swap; src: url("https://www.element-to-svg.com/_next/static/media/1d4eaed977255102-s.woff2") format("woff2"); unicode-range: U+100-2BA, U+2BD-2C5, U+2C7-2CC, U+2CE-2D7, U+2DD-2FF, U+304, U+308, U+329, U+1D00-1DBF, U+1E00-1E9F, U+1EF2-1EFF, U+2020, U+20A0-20AB, U+20AD-20C0, U+2113, U+2C60-2C7F, U+A720-A7FF; }
@font-face { font-family: __Sora_1822b0; font-style: normal; font-weight: 100; font-display: swap; src: url("https://www.element-to-svg.com/_next/static/media/f3f7e95f2dbc4fe4-s.p.woff2") format("woff2"); unicode-range: U+0-FF, U+131, U+152-153, U+2BB-2BC, U+2C6, U+2DA, U+2DC, U+304, U+308, U+329, U+2000-206F, U+20AC, U+2122, U+2191, U+2193, U+2212, U+2215, U+FEFF, U+FFFD; }
@font-face { font-family: __Sora_1822b0; font-style: normal; font-weight: 200; font-display: swap; src: url("https://www.element-to-svg.com/_next/static/media/1d4eaed977255102-s.woff2") format("woff2"); unicode-range: U+100-2BA, U+2BD-2C5, U+2C7-2CC, U+2CE-2D7, U+2DD-2FF, U+304, U+308, U+329, U+1D00-1DBF, U+1E00-1E9F, U+1EF2-1EFF, U+2020, U+20A0-20AB, U+20AD-20C0, U+2113, U+2C60-2C7F, U+A720-A7FF; }
@font-face { font-family: __Sora_1822b0; font-style: normal; font-weight: 200; font-display: swap; src: url("https://www.element-to-svg.com/_next/static/media/f3f7e95f2dbc4fe4-s.p.woff2") format("woff2"); unicode-range: U+0-FF, U+131, U+152-153, U+2BB-2BC, U+2C6, U+2DA, U+2DC, U+304, U+308, U+329, U+2000-206F, U+20AC, U+2122, U+2191, U+2193, U+2212, U+2215, U+FEFF, U+FFFD; }
@font-face { font-family: __Sora_1822b0; font-style: normal; font-weight: 300; font-display: swap; src: url("https://www.element-to-svg.com/_next/static/media/1d4eaed977255102-s.woff2") format("woff2"); unicode-range: U+100-2BA, U+2BD-2C5, U+2C7-2CC, U+2CE-2D7, U+2DD-2FF, U+304, U+308, U+329, U+1D00-1DBF, U+1E00-1E9F, U+1EF2-1EFF, U+2020, U+20A0-20AB, U+20AD-20C0, U+2113, U+2C60-2C7F, U+A720-A7FF; }
@font-face { font-family: __Sora_1822b0; font-style: normal; font-weight: 300; font-display: swap; src: url("https://www.element-to-svg.com/_next/static/media/f3f7e95f2dbc4fe4-s.p.woff2") format("woff2"); unicode-range: U+0-FF, U+131, U+152-153, U+2BB-2BC, U+2C6, U+2DA, U+2DC, U+304, U+308, U+329, U+2000-206F, U+20AC, U+2122, U+2191, U+2193, U+2212, U+2215, U+FEFF, U+FFFD; }
@font-face { font-family: __Sora_1822b0; font-style: normal; font-weight: 400; font-display: swap; src: url("https://www.element-to-svg.com/_next/static/media/1d4eaed977255102-s.woff2") format("woff2"); unicode-range: U+100-2BA, U+2BD-2C5, U+2C7-2CC, U+2CE-2D7, U+2DD-2FF, U+304, U+308, U+329, U+1D00-1DBF, U+1E00-1E9F, U+1EF2-1EFF, U+2020, U+20A0-20AB, U+20AD-20C0, U+2113, U+2C60-2C7F, U+A720-A7FF; }
@font-face { font-family: __Sora_1822b0; font-style: normal; font-weight: 400; font-display: swap; src: url("https://www.element-to-svg.com/_next/static/media/f3f7e95f2dbc4fe4-s.p.woff2") format("woff2"); unicode-range: U+0-FF, U+131, U+152-153, U+2BB-2BC, U+2C6, U+2DA, U+2DC, U+304, U+308, U+329, U+2000-206F, U+20AC, U+2122, U+2191, U+2193, U+2212, U+2215, U+FEFF, U+FFFD; }
@font-face { font-family: __Sora_1822b0; font-style: normal; font-weight: 500; font-display: swap; src: url("https://www.element-to-svg.com/_next/static/media/1d4eaed977255102-s.woff2") format("woff2"); unicode-range: U+100-2BA, U+2BD-2C5, U+2C7-2CC, U+2CE-2D7, U+2DD-2FF, U+304, U+308, U+329, U+1D00-1DBF, U+1E00-1E9F, U+1EF2-1EFF, U+2020, U+20A0-20AB, U+20AD-20C0, U+2113, U+2C60-2C7F, U+A720-A7FF; }
@font-face { font-family: __Sora_1822b0; font-style: normal; font-weight: 500; font-display: swap; src: url("https://www.element-to-svg.com/_next/static/media/f3f7e95f2dbc4fe4-s.p.woff2") format("woff2"); unicode-range: U+0-FF, U+131, U+152-153, U+2BB-2BC, U+2C6, U+2DA, U+2DC, U+304, U+308, U+329, U+2000-206F, U+20AC, U+2122, U+2191, U+2193, U+2212, U+2215, U+FEFF, U+FFFD; }
@font-face { font-family: __Sora_1822b0; font-style: normal; font-weight: 600; font-display: swap; src: url("https://www.element-to-svg.com/_next/static/media/1d4eaed977255102-s.woff2") format("woff2"); unicode-range: U+100-2BA, U+2BD-2C5, U+2C7-2CC, U+2CE-2D7, U+2DD-2FF, U+304, U+308, U+329, U+1D00-1DBF, U+1E00-1E9F, U+1EF2-1EFF, U+2020, U+20A0-20AB, U+20AD-20C0, U+2113, U+2C60-2C7F, U+A720-A7FF; }
@font-face { font-family: __Sora_1822b0; font-style: normal; font-weight: 600; font-display: swap; src: url("https://www.element-to-svg.com/_next/static/media/f3f7e95f2dbc4fe4-s.p.woff2") format("woff2"); unicode-range: U+0-FF, U+131, U+152-153, U+2BB-2BC, U+2C6, U+2DA, U+2DC, U+304, U+308, U+329, U+2000-206F, U+20AC, U+2122, U+2191, U+2193, U+2212, U+2215, U+FEFF, U+FFFD; }
@font-face { font-family: __Sora_1822b0; font-style: normal; font-weight: 700; font-display: swap; src: url("https://www.element-to-svg.com/_next/static/media/1d4eaed977255102-s.woff2") format("woff2"); unicode-range: U+100-2BA, U+2BD-2C5, U+2C7-2CC, U+2CE-2D7, U+2DD-2FF, U+304, U+308, U+329, U+1D00-1DBF, U+1E00-1E9F, U+1EF2-1EFF, U+2020, U+20A0-20AB, U+20AD-20C0, U+2113, U+2C60-2C7F, U+A720-A7FF; }
@font-face { font-family: __Sora_1822b0; font-style: normal; font-weight: 700; font-display: swap; src: url("https://www.element-to-svg.com/_next/static/media/f3f7e95f2dbc4fe4-s.p.woff2") format("woff2"); unicode-range: U+0-FF, U+131, U+152-153, U+2BB-2BC, U+2C6, U+2DA, U+2DC, U+304, U+308, U+329, U+2000-206F, U+20AC, U+2122, U+2191, U+2193, U+2212, U+2215, U+FEFF, U+FFFD; }
@font-face { font-family: __Sora_1822b0; font-style: normal; font-weight: 800; font-display: swap; src: url("https://www.element-to-svg.com/_next/static/media/1d4eaed977255102-s.woff2") format("woff2"); unicode-range: U+100-2BA, U+2BD-2C5, U+2C7-2CC, U+2CE-2D7, U+2DD-2FF, U+304, U+308, U+329, U+1D00-1DBF, U+1E00-1E9F, U+1EF2-1EFF, U+2020, U+20A0-20AB, U+20AD-20C0, U+2113, U+2C60-2C7F, U+A720-A7FF; }
@font-face { font-family: __Sora_1822b0; font-style: normal; font-weight: 800; font-display: swap; src: url("https://www.element-to-svg.com/_next/static/media/f3f7e95f2dbc4fe4-s.p.woff2") format("woff2"); unicode-range: U+0-FF, U+131, U+152-153, U+2BB-2BC, U+2C6, U+2DA, U+2DC, U+304, U+308, U+329, U+2000-206F, U+20AC, U+2122, U+2191, U+2193, U+2212, U+2215, U+FEFF, U+FFFD; }
@font-face { font-family: __Sora_Fallback_1822b0; src: local("Arial"); ascent-override: 85.29%; descent-override: 25.5%; line-gap-override: 0%; size-adjust: 113.73%; }
</style><g data-stacking-layer="rootBackgroundAndBorders"/><g data-stacking-layer="childStackingContextsWithNegativeStackLevels"/><g data-stacking-layer="inFlowNonInlineNonPositionedDescendants"/><g data-stacking-layer="nonPositionedFloats"/><g data-stacking-layer="inFlowInlineLevelNonPositionedDescendants"/><g data-stacking-layer="childStackingContextsWithStackLevelZeroAndPositionedDescendantsWithStackLevelZero"/><g data-stacking-layer="childStackingContextsWithPositiveStackLevels"/><g data-tag="div" id="w-full1" class="w-full" data-z-index="auto" data-stacking-context="true" aria-owns="style1 svg1"><g data-tag="style" id="style1" data-z-index="auto" data-stacking-context="true"/><g data-tag="svg" id="svg1" data-z-index="auto" data-stacking-context="true" mask="url(#mask-for-svg11)"><g data-stacking-layer="rootBackgroundAndBorders"/><g data-stacking-layer="childStackingContextsWithNegativeStackLevels"/><g data-stacking-layer="inFlowNonInlineNonPositionedDescendants"/><g data-stacking-layer="nonPositionedFloats"/><g data-stacking-layer="inFlowInlineLevelNonPositionedDescendants"/><g data-stacking-layer="childStackingContextsWithStackLevelZeroAndPositionedDescendantsWithStackLevelZero"/><g data-stacking-layer="childStackingContextsWithPositiveStackLevels"/><mask id="mask-for-svg11"><rect width="542" height="542" x="464" y="-102" fill="#ffffff"/></mask><g class="svg-content" data-view-box="0 0 512 512" data-width="512" data-height="512" transform="matrix(1.05859 0 0 1.05859 464 -102)"><defs color="rgb(0, 0, 0)" fill="rgb(0, 0, 0)" stroke="none"><clipPath id="svg1-__lottie_element_105"><rect width="512" height="512" x="0" y="0" color="rgb(0, 0, 0)" fill="rgb(0, 0, 0)" stroke="none"/></clipPath><clipPath id="svg1-__lottie_element_107"><path d="M0,0 L1080,0 L1080,1080 L0,1080z" color="rgb(0, 0, 0)" fill="rgb(0, 0, 0)" stroke="none"/></clipPath><clipPath id="svg1-__lottie_element_118"><path d="M0,0 L1080,0 L1080,1080 L0,1080z" color="rgb(0, 0, 0)" fill="rgb(0, 0, 0)" stroke="none"/></clipPath></defs><g clip-path="url(&quot;#svg1-__lottie_element_105&quot;)" color="rgb(0, 0, 0)" fill="rgb(0, 0, 0)" stroke="none"><g clip-path="url(&quot;#svg1-__lottie_element_118&quot;)" style="display: block;" transform="matrix(1, 0, 0, 1, -284, -284)" opacity="1" color="rgb(0, 0, 0)" fill="rgb(0, 0, 0)" stroke="none"><g transform="matrix(5.99706, -0.187679, 0.187679, 5.99706, 352.51, 353.221)" opacity="1" style="display: block;" color="rgb(0, 0, 0)" fill="rgb(0, 0, 0)" stroke="none"><g opacity="1" transform="matrix(0.999922, -0.0125136, 0.0125136, 0.999922, 30.743, 32)" color="rgb(0, 0, 0)" fill="rgb(0, 0, 0)" stroke="none"><path fill="rgb(255, 255, 255)" fill-opacity="1" d=" M-4.860000133514404,-27.00200080871582 C-3.4519999027252197,-28.58799934387207 -1.8289999961853027,-29.5 0,-29.5 C7.46999979019165,-29.5 11.5,-14.300999641418457 11.5,0 C11.5,14.300999641418457 7.46999979019165,29.5 0,29.5 C-7.46999979019165,29.5 -11.5,14.300999641418457 -11.5,0 C-11.5,-6.2820000648498535 -10.722000122070312,-12.736000061035156 -9.217000007629395,-18 M-8.229000091552734,-21.00200080871582 C-7.818999767303467,-22.08300018310547 -7.372000217437744,-23.08799934387207 -6.88700008392334,-24 M0,-26.5 C-4.864999771118164,-26.5 -8.5,-12.508999824523926 -8.5,0 C-8.5,12.508999824523926 -4.864999771118164,26.5 0,26.5 C4.864999771118164,26.5 8.5,12.508999824523926 8.5,0 C8.5,-12.508999824523926 4.864999771118164,-26.5 0,-26.5z" color="rgb(0, 0, 0)" stroke="none"/><path stroke-linecap="round" stroke-linejoin="round" fill-opacity="0" stroke="rgb(55, 70, 79)" stroke-opacity="1" stroke-width="1" d=" M-4.860000133514404,-27.00200080871582 C-3.4519999027252197,-28.58799934387207 -1.8289999961853027,-29.5 0,-29.5 C7.46999979019165,-29.5 11.5,-14.300999641418457 11.5,0 C11.5,14.300999641418457 7.46999979019165,29.5 0,29.5 C-7.46999979019165,29.5 -11.5,14.300999641418457 -11.5,0 C-11.5,-6.2820000648498535 -10.722000122070312,-12.736000061035156 -9.217000007629395,-18 M-8.229000091552734,-21.00200080871582 C-7.818999767303467,-22.08300018310547 -7.372000217437744,-23.08799934387207 -6.88700008392334,-24 M0,-26.5 C-4.864999771118164,-26.5 -8.5,-12.508999824523926 -8.5,0 C-8.5,12.508999824523926 -4.864999771118164,26.5 0,26.5 C4.864999771118164,26.5 8.5,12.508999824523926 8.5,0 C8.5,-12.508999824523926 4.864999771118164,-26.5 0,-26.5z" color="rgb(0, 0, 0)" fill="rgb(0, 0, 0)"/></g><g opacity="1" transform="matrix(0.996309, -0.085843, 0.085843, 0.996309, -2.63272, 2.75725)" color="rgb(0, 0, 0)" fill="rgb(0, 0, 0)" stroke="none"><g opacity="1" transform="matrix(1, 0, 0, 1, 34.407, 18.561)" color="rgb(0, 0, 0)" fill="rgb(0, 0, 0)" stroke="none"><path fill="rgb(99, 181, 246)" fill-opacity="1" d=" M-0.164000004529953,2.25 C1.1200000047683716,1.7079999446868896 2.8992574214935303,0.9593797326087952 4.157257556915283,0.516379714012146 C3.963257312774658,-0.517620325088501 3.8017001152038574,-1.4606860876083374 3.5657002925872803,-2.4246861934661865 C1.3707001209259033,-1.6656861305236816 -1.4290000200271606,-0.5609999895095825 -3.6589999198913574,0.48500001430511475 C-2.497999906539917,1.034000039100647 -1.3309999704360962,1.625 -0.164000004529953,2.25z" color="rgb(0, 0, 0)" stroke="none"/><path stroke-linecap="round" stroke-linejoin="round" fill-opacity="0" stroke="rgb(55, 70, 79)" stroke-opacity="1" stroke-width="1" d=" M-0.164000004529953,2.25 C1.1200000047683716,1.7079999446868896 2.8992574214935303,0.9593797326087952 4.157257556915283,0.516379714012146 C3.963257312774658,-0.517620325088501 3.8017001152038574,-1.4606860876083374 3.5657002925872803,-2.4246861934661865 C1.3707001209259033,-1.6656861305236816 -1.4290000200271606,-0.5609999895095825 -3.6589999198913574,0.48500001430511475 C-2.497999906539917,1.034000039100647 -1.3309999704360962,1.625 -0.164000004529953,2.25z" color="rgb(0, 0, 0)" fill="rgb(0, 0, 0)"/></g><g opacity="1" transform="matrix(1, 0, 0, 1, 30.744, 31.629)" color="rgb(0, 0, 0)" fill="rgb(0, 0, 0)" stroke="none"><path fill="rgb(99, 181, 246)" fill-opacity="1" d=" M25.547000885009766,-14.378999710083008 C23.31100082397461,-18.25200080871582 18.61400032043457,-18.82699966430664 11.227999687194824,-16.732999801635742 C11.127156257629395,-16.51128387451172 10.858621597290039,-16.23147964477539 10.888168334960938,-16.040245056152344 C10.963677406311035,-15.54369068145752 11.150256156921387,-14.489785194396973 11.220020294189453,-13.979278564453125 C11.240538597106934,-13.830721855163574 11.535082817077637,-13.780064582824707 11.670000076293945,-13.652000427246094 C14.696000099182129,-14.534000396728516 16.05299949645996,-14.64799976348877 18.261999130249023,-14.64799976348877 C20.55900001525879,-14.64799976348877 22.240999221801758,-14.105999946594238 22.948999404907227,-12.878999710083008 C23.915000915527344,-11.206000328063965 22.639999389648438,-8.026000022888184 19.538000106811523,-4.375 C16.01099967956543,-0.22300000488758087 10.581000328063965,4.078000068664551 4.249000072479248,7.732999801635742 C-2.0829999446868896,11.388999938964844 -8.520999908447266,13.940999984741211 -13.880999565124512,14.920000076293945 C-18.59000015258789,15.779000282287598 -21.983999252319336,15.295000076293945 -22.950000762939453,13.621000289916992 C-23.916000366210938,11.947999954223633 -22.641000747680664,8.769000053405762 -19.538999557495117,5.118000030517578 C-16.01300048828125,0.9660000205039978 -10.583000183105469,-3.3340001106262207 -4.250999927520752,-6.988999843597412 C-2.864000082015991,-7.789999961853027 -0.7229999899864197,-8.795000076293945 0.734000027179718,-9.503999710083008 C-0.3720000088214874,-10.177000045776367 -1.3849999904632568,-10.977999687194824 -2.5320000648498535,-11.472000122070312 C-3.309999942779541,-11.057999610900879 -4.991000175476074,-10.026000022888184 -5.750999927520752,-9.586999893188477 C-12.373000144958496,-5.763999938964844 -18.082000732421875,-1.2319999933242798 -21.826000213623047,3.177000045776367 C-25.902000427246094,7.97599983215332 -27.224000930786133,12.218000411987305 -25.54800033569336,15.121000289916992 C-24.32699966430664,17.236000061035156 -21.69499969482422,18.32900047302246 -17.961000442504883,18.32900047302246 C-16.569000244140625,18.32900047302246 -15.02400016784668,18.17799949645996 -13.342000007629395,17.871000289916992 C-7.6519999504089355,16.832000732421875 -0.8730000257492065,14.154000282287598 5.749000072479248,10.331000328063965 C12.371000289916992,6.507999897003174 18.079999923706055,1.975000023841858 21.823999404907227,-2.434000015258789 C25.900999069213867,-7.232999801635742 27.224000930786133,-11.47599983215332 25.547000885009766,-14.378999710083008z" color="rgb(0, 0, 0)" stroke="none"/><path stroke-linecap="round" stroke-linejoin="round" fill-opacity="0" stroke="rgb(55, 70, 79)" stroke-opacity="1" stroke-width="1" d=" M25.547000885009766,-14.378999710083008 C23.31100082397461,-18.25200080871582 18.61400032043457,-18.82699966430664 11.227999687194824,-16.732999801635742 C11.127156257629395,-16.51128387451172 10.858621597290039,-16.23147964477539 10.888168334960938,-16.040245056152344 C10.963677406311035,-15.54369068145752 11.150256156921387,-14.489785194396973 11.220020294189453,-13.979278564453125 C11.240538597106934,-13.830721855163574 11.535082817077637,-13.780064582824707 11.670000076293945,-13.652000427246094 C14.696000099182129,-14.534000396728516 16.05299949645996,-14.64799976348877 18.261999130249023,-14.64799976348877 C20.55900001525879,-14.64799976348877 22.240999221801758,-14.105999946594238 22.948999404907227,-12.878999710083008 C23.915000915527344,-11.206000328063965 22.639999389648438,-8.026000022888184 19.538000106811523,-4.375 C16.01099967956543,-0.22300000488758087 10.581000328063965,4.078000068664551 4.249000072479248,7.732999801635742 C-2.0829999446868896,11.388999938964844 -8.520999908447266,13.940999984741211 -13.880999565124512,14.920000076293945 C-18.59000015258789,15.779000282287598 -21.983999252319336,15.295000076293945 -22.950000762939453,13.621000289916992 C-23.916000366210938,11.947999954223633 -22.641000747680664,8.769000053405762 -19.538999557495117,5.118000030517578 C-16.01300048828125,0.9660000205039978 -10.583000183105469,-3.3340001106262207 -4.250999927520752,-6.988999843597412 C-2.864000082015991,-7.789999961853027 -0.7229999899864197,-8.795000076293945 0.734000027179718,-9.503999710083008 C-0.3720000088214874,-10.177000045776367 -1.3849999904632568,-10.977999687194824 -2.5320000648498535,-11.472000122070312 C-3.309999942779541,-11.057999610900879 -4.991000175476074,-10.026000022888184 -5.750999927520752,-9.586999893188477 C-12.373000144958496,-5.763999938964844 -18.082000732421875,-1.2319999933242798 -21.826000213623047,3.177000045776367 C-25.902000427246094,7.97599983215332 -27.224000930786133,12.218000411987305 -25.54800033569336,15.121000289916992 C-24.32699966430664,17.236000061035156 -21.69499969482422,18.32900047302246 -17.961000442504883,18.32900047302246 C-16.569000244140625,18.32900047302246 -15.02400016784668,18.17799949645996 -13.342000007629395,17.871000289916992 C-7.6519999504089355,16.832000732421875 -0.8730000257492065,14.154000282287598 5.749000072479248,10.331000328063965 C12.371000289916992,6.507999897003174 18.079999923706055,1.975000023841858 21.823999404907227,-2.434000015258789 C25.900999069213867,-7.232999801635742 27.224000930786133,-11.47599983215332 25.547000885009766,-14.378999710083008z" color="rgb(0, 0, 0)" fill="rgb(0, 0, 0)"/></g></g><g opacity="1" transform="matrix(0.997436, 0.0715628, -0.0715628, 0.997436, 2.36955, -2.11798)" color="rgb(0, 0, 0)" fill="rgb(0, 0, 0)" stroke="none"><g opacity="1" transform="matrix(1, 0, 0, 1, 35.579, 24.141)" color="rgb(0, 0, 0)" fill="rgb(0, 0, 0)" stroke="none"><path fill="rgb(255, 201, 40)" fill-opacity="1" d=" M-13.010000228881836,-5.026000022888184 C-9.302000045776367,-3.7209999561309814 -4.489999771118164,-1.7569999694824219 -0.5860000252723694,0.4970000088214874 C3.3389999866485596,2.76200008392334 5.661117076873779,4.085183620452881 8.6541166305542,6.658183574676514 C9.440116882324219,5.9841837882995605 9.998826026916504,5.048882007598877 10.699825286865234,4.369882106781006 C7.50182580947876,1.5868821144104004 5.114999771118164,0.32499998807907104 0.9139999747276306,-2.0999999046325684 C-3.2709999084472656,-4.517000198364258 -8.529000282287598,-6.802000045776367 -12.526000022888184,-8.178999900817871 C-12.756999969482422,-7.230999946594238 -12.819000244140625,-6.039999961853027 -13.010000228881836,-5.026000022888184z" color="rgb(0, 0, 0)" stroke="none"/><path stroke-linecap="round" stroke-linejoin="round" fill-opacity="0" stroke="rgb(55, 70, 79)" stroke-opacity="1" stroke-width="1" d=" M-13.010000228881836,-5.026000022888184 C-9.302000045776367,-3.7209999561309814 -4.489999771118164,-1.7569999694824219 -0.5860000252723694,0.4970000088214874 C3.3389999866485596,2.76200008392334 5.661117076873779,4.085183620452881 8.6541166305542,6.658183574676514 C9.440116882324219,5.9841837882995605 9.998826026916504,5.048882007598877 10.699825286865234,4.369882106781006 C7.50182580947876,1.5868821144104004 5.114999771118164,0.32499998807907104 0.9139999747276306,-2.0999999046325684 C-3.2709999084472656,-4.517000198364258 -8.529000282287598,-6.802000045776367 -12.526000022888184,-8.178999900817871 C-12.756999969482422,-7.230999946594238 -12.819000244140625,-6.039999961853027 -13.010000228881836,-5.026000022888184z" color="rgb(0, 0, 0)" fill="rgb(0, 0, 0)"/></g><g opacity="1" transform="matrix(1, 0, 0, 1, 30.743, 31.673)" color="rgb(0, 0, 0)" fill="rgb(0, 0, 0)" stroke="none"><path fill="rgb(255, 201, 40)" fill-opacity="1" d=" M21.825000762939453,3.13100004196167 C21.03499984741211,2.200000047683716 19.081647872924805,0.40573999285697937 18.12664794921875,-0.5282599925994873 C17.428647994995117,0.15073998272418976 16.917890548706055,1.0743060111999512 16.141891479492188,1.7483060359954834 C17.07489013671875,2.653306007385254 18.774999618530273,4.173999786376953 19.538999557495117,5.072999954223633 C22.639999389648438,8.725000381469727 23.916000366210938,11.902999877929688 22.950000762939453,13.576000213623047 C20.51799964904785,17.790000915527344 6.583000183105469,13.942000389099121 -4.25,7.688000202178955 C-10.581999778747559,4.0320000648498535 -16.011999130249023,-0.2669999897480011 -19.538000106811523,-4.420000076293945 C-22.639999389648438,-8.071000099182129 -23.915000915527344,-11.25100040435791 -22.948999404907227,-12.923999786376953 C-22.29800033569336,-14.052000045776367 -20.54599952697754,-14.640000343322754 -18.02899932861328,-14.640000343322754 C-16.812999725341797,-14.640000343322754 -15.416000366210938,-14.50100040435791 -13.880000114440918,-14.220999717712402 C-12.71500015258789,-14.008000373840332 -12.560829162597656,-14.016886711120605 -11.306829452514648,-13.659886360168457 C-11.11082935333252,-14.666886329650879 -11.039366722106934,-15.690707206726074 -10.79936695098877,-16.639707565307617 C-12.092367172241211,-17.00270652770996 -12.133999824523926,-16.951000213623047 -13.340999603271484,-17.172000885009766 C-19.53499984741211,-18.30500030517578 -23.871000289916992,-17.327999114990234 -25.547000885009766,-14.423999786376953 C-27.224000930786133,-11.520000457763672 -25.902000427246094,-7.276000022888184 -21.825000762939453,-2.4769999980926514 C-18.08099937438965,1.930999994277954 -12.371999740600586,6.4629998207092285 -5.75,10.28600025177002 C2.309999942779541,14.940999984741211 11.553000450134277,18.30500030517578 18.054000854492188,18.30500030517578 C21.542999267578125,18.304000854492188 24.243999481201172,17.334999084472656 25.54800033569336,15.076000213623047 C27.224000930786133,12.17300033569336 25.902000427246094,7.929999828338623 21.825000762939453,3.13100004196167z" color="rgb(0, 0, 0)" stroke="none"/><path stroke-linecap="round" stroke-linejoin="round" fill-opacity="0" stroke="rgb(55, 70, 79)" stroke-opacity="1" stroke-width="1" d=" M21.825000762939453,3.13100004196167 C21.03499984741211,2.200000047683716 19.081647872924805,0.40573999285697937 18.12664794921875,-0.5282599925994873 C17.428647994995117,0.15073998272418976 16.917890548706055,1.0743060111999512 16.141891479492188,1.7483060359954834 C17.07489013671875,2.653306007385254 18.774999618530273,4.173999786376953 19.538999557495117,5.072999954223633 C22.639999389648438,8.725000381469727 23.916000366210938,11.902999877929688 22.950000762939453,13.576000213623047 C20.51799964904785,17.790000915527344 6.583000183105469,13.942000389099121 -4.25,7.688000202178955 C-10.581999778747559,4.0320000648498535 -16.011999130249023,-0.2669999897480011 -19.538000106811523,-4.420000076293945 C-22.639999389648438,-8.071000099182129 -23.915000915527344,-11.25100040435791 -22.948999404907227,-12.923999786376953 C-22.29800033569336,-14.052000045776367 -20.54599952697754,-14.640000343322754 -18.02899932861328,-14.640000343322754 C-16.812999725341797,-14.640000343322754 -15.416000366210938,-14.50100040435791 -13.880000114440918,-14.220999717712402 C-12.71500015258789,-14.008000373840332 -12.560829162597656,-14.016886711120605 -11.306829452514648,-13.659886360168457 C-11.11082935333252,-14.666886329650879 -11.039366722106934,-15.690707206726074 -10.79936695098877,-16.639707565307617 C-12.092367172241211,-17.00270652770996 -12.133999824523926,-16.951000213623047 -13.340999603271484,-17.172000885009766 C-19.53499984741211,-18.30500030517578 -23.871000289916992,-17.327999114990234 -25.547000885009766,-14.423999786376953 C-27.224000930786133,-11.520000457763672 -25.902000427246094,-7.276000022888184 -21.825000762939453,-2.4769999980926514 C-18.08099937438965,1.930999994277954 -12.371999740600586,6.4629998207092285 -5.75,10.28600025177002 C2.309999942779541,14.940999984741211 11.553000450134277,18.30500030517578 18.054000854492188,18.30500030517578 C21.542999267578125,18.304000854492188 24.243999481201172,17.334999084472656 25.54800033569336,15.076000213623047 C27.224000930786133,12.17300033569336 25.902000427246094,7.929999828338623 21.825000762939453,3.13100004196167z" color="rgb(0, 0, 0)" fill="rgb(0, 0, 0)"/></g></g></g><g transform="matrix(5.48291, -2.43675, 2.43675, 5.48291, 296.797, 437.403)" opacity="1" style="display: block;" color="rgb(0, 0, 0)" fill="rgb(0, 0, 0)" stroke="none"><g opacity="1" transform="matrix(0.776331, 0, 0, 0.776331, 56, 5)" color="rgb(0, 0, 0)" fill="rgb(0, 0, 0)" stroke="none"><path fill="rgb(238, 82, 80)" fill-opacity="1" d=" M2.5,0 C2.5,1.3799999952316284 1.3799999952316284,2.5 0,2.5 C-1.38100004196167,2.5 -2.5,1.3799999952316284 -2.5,0 C-2.5,-1.38100004196167 -1.38100004196167,-2.5 0,-2.5 C1.3799999952316284,-2.5 2.5,-1.38100004196167 2.5,0z" color="rgb(0, 0, 0)" stroke="none"/><path stroke-linecap="round" stroke-linejoin="round" fill-opacity="0" stroke="rgb(55, 70, 79)" stroke-opacity="1" stroke-width="1" d=" M2.5,0 C2.5,1.3799999952316284 1.3799999952316284,2.5 0,2.5 C-1.38100004196167,2.5 -2.5,1.3799999952316284 -2.5,0 C-2.5,-1.38100004196167 -1.38100004196167,-2.5 0,-2.5 C1.3799999952316284,-2.5 2.5,-1.38100004196167 2.5,0z" color="rgb(0, 0, 0)" fill="rgb(0, 0, 0)"/></g><g opacity="1" transform="matrix(0.776331, 0, 0, 0.776331, 5, 58)" color="rgb(0, 0, 0)" fill="rgb(0, 0, 0)" stroke="none"><path fill="rgb(238, 82, 80)" fill-opacity="1" d=" M2.5,0 C2.5,1.3799999952316284 1.3799999952316284,2.5 0,2.5 C-1.38100004196167,2.5 -2.5,1.3799999952316284 -2.5,0 C-2.5,-1.38100004196167 -1.38100004196167,-2.5 0,-2.5 C1.3799999952316284,-2.5 2.5,-1.38100004196167 2.5,0z" color="rgb(0, 0, 0)" stroke="none"/><path stroke-linecap="round" stroke-linejoin="round" fill-opacity="0" stroke="rgb(55, 70, 79)" stroke-opacity="1" stroke-width="1" d=" M2.5,0 C2.5,1.3799999952316284 1.3799999952316284,2.5 0,2.5 C-1.38100004196167,2.5 -2.5,1.3799999952316284 -2.5,0 C-2.5,-1.38100004196167 -1.38100004196167,-2.5 0,-2.5 C1.3799999952316284,-2.5 2.5,-1.38100004196167 2.5,0z" color="rgb(0, 0, 0)" fill="rgb(0, 0, 0)"/></g></g></g><g clip-path="url(&quot;#svg1-__lottie_element_107&quot;)" transform="matrix(1, 0, 0, 1, -284, -284)" opacity="1" style="display: none;" color="rgb(0, 0, 0)" fill="rgb(0, 0, 0)" stroke="none"><g transform="matrix(6, -2.06833e-06, 2.06833e-06, 6, 358.366, 347.462)" opacity="1" style="display: block;" color="rgb(0, 0, 0)" fill="rgb(0, 0, 0)" stroke="none"><g opacity="1" transform="matrix(1, 0, 0, 1, 30.743, 32)" color="rgb(0, 0, 0)" fill="rgb(0, 0, 0)" stroke="none"><path fill="rgb(255, 255, 255)" fill-opacity="1" d=" M-4.860000133514404,-27.00200080871582 C-3.4519999027252197,-28.58799934387207 -1.8289999961853027,-29.5 0,-29.5 C7.46999979019165,-29.5 11.5,-14.300999641418457 11.5,0 C11.5,14.300999641418457 7.46999979019165,29.5 0,29.5 C-7.46999979019165,29.5 -11.5,14.300999641418457 -11.5,0 C-11.5,-6.2820000648498535 -10.722000122070312,-12.736000061035156 -9.217000007629395,-18 M-8.229000091552734,-21.00200080871582 C-7.818999767303467,-22.08300018310547 -7.372000217437744,-23.08799934387207 -6.88700008392334,-24 M0,-26.5 C-4.864999771118164,-26.5 -8.5,-12.508999824523926 -8.5,0 C-8.5,12.508999824523926 -4.864999771118164,26.5 0,26.5 C4.864999771118164,26.5 8.5,12.508999824523926 8.5,0 C8.5,-12.508999824523926 4.864999771118164,-26.5 0,-26.5z" color="rgb(0, 0, 0)" stroke="none"/><path stroke-linecap="round" stroke-linejoin="round" fill-opacity="0" stroke="rgb(55, 70, 79)" stroke-opacity="1" stroke-width="1" d=" M-4.860000133514404,-27.00200080871582 C-3.4519999027252197,-28.58799934387207 -1.8289999961853027,-29.5 0,-29.5 C7.46999979019165,-29.5 11.5,-14.300999641418457 11.5,0 C11.5,14.300999641418457 7.46999979019165,29.5 0,29.5 C-7.46999979019165,29.5 -11.5,14.300999641418457 -11.5,0 C-11.5,-6.2820000648498535 -10.722000122070312,-12.736000061035156 -9.217000007629395,-18 M-8.229000091552734,-21.00200080871582 C-7.818999767303467,-22.08300018310547 -7.372000217437744,-23.08799934387207 -6.88700008392334,-24 M0,-26.5 C-4.864999771118164,-26.5 -8.5,-12.508999824523926 -8.5,0 C-8.5,12.508999824523926 -4.864999771118164,26.5 0,26.5 C4.864999771118164,26.5 8.5,12.508999824523926 8.5,0 C8.5,-12.508999824523926 4.864999771118164,-26.5 0,-26.5z" color="rgb(0, 0, 0)" fill="rgb(0, 0, 0)"/></g><g opacity="1" transform="matrix(0.994522, -0.104528, 0.104528, 0.994522, -3.17554, 3.38887)" color="rgb(0, 0, 0)" fill="rgb(0, 0, 0)" stroke="none"><g opacity="1" transform="matrix(1, 0, 0, 1, 34.407, 18.561)" color="rgb(0, 0, 0)" fill="rgb(0, 0, 0)" stroke="none"><path fill="rgb(99, 181, 246)" fill-opacity="1" d=" M-0.164000004529953,2.25 C1.1200000047683716,1.7079999446868896 3.1899967193603516,0.859001100063324 4.447996616363525,0.4160011112689972 C4.253996849060059,-0.6179988980293274 4.1169962882995605,-1.5719987154006958 3.8809964656829834,-2.535998821258545 C1.6859965324401855,-1.77699875831604 -1.4290000200271606,-0.5609999895095825 -3.6589999198913574,0.48500001430511475 C-2.497999906539917,1.034000039100647 -1.3309999704360962,1.625 -0.164000004529953,2.25z" color="rgb(0, 0, 0)" stroke="none"/><path stroke-linecap="round" stroke-linejoin="round" fill-opacity="0" stroke="rgb(55, 70, 79)" stroke-opacity="1" stroke-width="1" d=" M-0.164000004529953,2.25 C1.1200000047683716,1.7079999446868896 3.1899967193603516,0.859001100063324 4.447996616363525,0.4160011112689972 C4.253996849060059,-0.6179988980293274 4.1169962882995605,-1.5719987154006958 3.8809964656829834,-2.535998821258545 C1.6859965324401855,-1.77699875831604 -1.4290000200271606,-0.5609999895095825 -3.6589999198913574,0.48500001430511475 C-2.497999906539917,1.034000039100647 -1.3309999704360962,1.625 -0.164000004529953,2.25z" color="rgb(0, 0, 0)" fill="rgb(0, 0, 0)"/></g><g opacity="1" transform="matrix(1, 0, 0, 1, 30.744, 31.629)" color="rgb(0, 0, 0)" fill="rgb(0, 0, 0)" stroke="none"><path fill="rgb(99, 181, 246)" fill-opacity="1" d=" M25.547000885009766,-14.378999710083008 C23.31100082397461,-18.25200080871582 18.61400032043457,-18.82699966430664 11.227999687194824,-16.732999801635742 C11.283998489379883,-16.511999130249023 11.326994895935059,-16.283998489379883 11.362995147705078,-16.051000595092773 C11.454994201660156,-15.446001052856445 11.49799633026123,-14.810996055603027 11.582996368408203,-14.188997268676758 C11.607995986938477,-14.0079984664917 11.635998725891113,-13.828999519348145 11.670000076293945,-13.652000427246094 C14.696000099182129,-14.534000396728516 16.05299949645996,-14.64799976348877 18.261999130249023,-14.64799976348877 C20.55900001525879,-14.64799976348877 22.240999221801758,-14.105999946594238 22.948999404907227,-12.878999710083008 C23.915000915527344,-11.206000328063965 22.639999389648438,-8.026000022888184 19.538000106811523,-4.375 C16.01099967956543,-0.22300000488758087 10.581000328063965,4.078000068664551 4.249000072479248,7.732999801635742 C-2.0829999446868896,11.388999938964844 -8.520999908447266,13.940999984741211 -13.880999565124512,14.920000076293945 C-18.59000015258789,15.779000282287598 -21.983999252319336,15.295000076293945 -22.950000762939453,13.621000289916992 C-23.916000366210938,11.947999954223633 -22.641000747680664,8.770000457763672 -19.538999557495117,5.11899995803833 C-16.01300048828125,0.9670000076293945 -10.583000183105469,-3.3340001106262207 -4.250999927520752,-6.988999843597412 C-2.864000082015991,-7.789999961853027 -0.7229999899864197,-8.795000076293945 0.734000027179718,-9.503999710083008 C-0.3720000088214874,-10.177000045776367 -1.3849999904632568,-10.977999687194824 -2.5320000648498535,-11.472000122070312 C-3.309999942779541,-11.057999610900879 -4.991000175476074,-10.026000022888184 -5.750999927520752,-9.586999893188477 C-12.373000144958496,-5.763999938964844 -18.082000732421875,-1.2319999933242798 -21.826000213623047,3.177000045776367 C-25.902000427246094,7.97599983215332 -27.224000930786133,12.218000411987305 -25.54800033569336,15.121000289916992 C-24.32699966430664,17.236000061035156 -21.69499969482422,18.32900047302246 -17.961000442504883,18.32900047302246 C-16.569000244140625,18.32900047302246 -15.02400016784668,18.17799949645996 -13.342000007629395,17.871000289916992 C-7.6519999504089355,16.832000732421875 -0.8730000257492065,14.154000282287598 5.749000072479248,10.331000328063965 C12.371000289916992,6.507999897003174 18.079999923706055,1.975000023841858 21.823999404907227,-2.434000015258789 C25.900999069213867,-7.232999801635742 27.224000930786133,-11.47599983215332 25.547000885009766,-14.378999710083008z" color="rgb(0, 0, 0)" stroke="none"/><path stroke-linecap="round" stroke-linejoin="round" fill-opacity="0" stroke="rgb(55, 70, 79)" stroke-opacity="1" stroke-width="1" d=" M25.547000885009766,-14.378999710083008 C23.31100082397461,-18.25200080871582 18.61400032043457,-18.82699966430664 11.227999687194824,-16.732999801635742 C11.283998489379883,-16.511999130249023 11.326994895935059,-16.283998489379883 11.362995147705078,-16.051000595092773 C11.454994201660156,-15.446001052856445 11.49799633026123,-14.810996055603027 11.582996368408203,-14.188997268676758 C11.607995986938477,-14.0079984664917 11.635998725891113,-13.828999519348145 11.670000076293945,-13.652000427246094 C14.696000099182129,-14.534000396728516 16.05299949645996,-14.64799976348877 18.261999130249023,-14.64799976348877 C20.55900001525879,-14.64799976348877 22.240999221801758,-14.105999946594238 22.948999404907227,-12.878999710083008 C23.915000915527344,-11.206000328063965 22.639999389648438,-8.026000022888184 19.538000106811523,-4.375 C16.01099967956543,-0.22300000488758087 10.581000328063965,4.078000068664551 4.249000072479248,7.732999801635742 C-2.0829999446868896,11.388999938964844 -8.520999908447266,13.940999984741211 -13.880999565124512,14.920000076293945 C-18.59000015258789,15.779000282287598 -21.983999252319336,15.295000076293945 -22.950000762939453,13.621000289916992 C-23.916000366210938,11.947999954223633 -22.641000747680664,8.770000457763672 -19.538999557495117,5.11899995803833 C-16.01300048828125,0.9670000076293945 -10.583000183105469,-3.3340001106262207 -4.250999927520752,-6.988999843597412 C-2.864000082015991,-7.789999961853027 -0.7229999899864197,-8.795000076293945 0.734000027179718,-9.503999710083008 C-0.3720000088214874,-10.177000045776367 -1.3849999904632568,-10.977999687194824 -2.5320000648498535,-11.472000122070312 C-3.309999942779541,-11.057999610900879 -4.991000175476074,-10.026000022888184 -5.750999927520752,-9.586999893188477 C-12.373000144958496,-5.763999938964844 -18.082000732421875,-1.2319999933242798 -21.826000213623047,3.177000045776367 C-25.902000427246094,7.97599983215332 -27.224000930786133,12.218000411987305 -25.54800033569336,15.121000289916992 C-24.32699966430664,17.236000061035156 -21.69499969482422,18.32900047302246 -17.961000442504883,18.32900047302246 C-16.569000244140625,18.32900047302246 -15.02400016784668,18.17799949645996 -13.342000007629395,17.871000289916992 C-7.6519999504089355,16.832000732421875 -0.8730000257492065,14.154000282287598 5.749000072479248,10.331000328063965 C12.371000289916992,6.507999897003174 18.079999923706055,1.975000023841858 21.823999404907227,-2.434000015258789 C25.900999069213867,-7.232999801635742 27.224000930786133,-11.47599983215332 25.547000885009766,-14.378999710083008z" color="rgb(0, 0, 0)" fill="rgb(0, 0, 0)"/></g></g><g opacity="1" transform="matrix(0.996195, 0.0871556, -0.0871556, 0.996195, 2.90684, -2.55762)" color="rgb(0, 0, 0)" fill="rgb(0, 0, 0)" stroke="none"><g opacity="1" transform="matrix(1, 0, 0, 1, 35.579, 24.141)" color="rgb(0, 0, 0)" fill="rgb(0, 0, 0)" stroke="none"><path fill="rgb(255, 201, 40)" fill-opacity="1" d=" M-13.010000228881836,-5.026000022888184 C-9.302000045776367,-3.7209999561309814 -4.489999771118164,-1.7569999694824219 -0.5860000252723694,0.4970000088214874 C3.3389999866485596,2.76200008392334 5.498001575469971,3.8950021266937256 8.491002082824707,6.4680023193359375 C9.27700138092041,5.794002056121826 9.79000186920166,4.8440022468566895 10.491002082824707,4.165002346038818 C7.293002128601074,1.3820022344589233 5.114999771118164,0.32499998807907104 0.9139999747276306,-2.0999999046325684 C-3.2709999084472656,-4.517000198364258 -8.529000282287598,-6.802000045776367 -12.526000022888184,-8.178999900817871 C-12.756999969482422,-7.230999946594238 -12.819000244140625,-6.039999961853027 -13.010000228881836,-5.026000022888184z" color="rgb(0, 0, 0)" stroke="none"/><path stroke-linecap="round" stroke-linejoin="round" fill-opacity="0" stroke="rgb(55, 70, 79)" stroke-opacity="1" stroke-width="1" d=" M-13.010000228881836,-5.026000022888184 C-9.302000045776367,-3.7209999561309814 -4.489999771118164,-1.7569999694824219 -0.5860000252723694,0.4970000088214874 C3.3389999866485596,2.76200008392334 5.498001575469971,3.8950021266937256 8.491002082824707,6.4680023193359375 C9.27700138092041,5.794002056121826 9.79000186920166,4.8440022468566895 10.491002082824707,4.165002346038818 C7.293002128601074,1.3820022344589233 5.114999771118164,0.32499998807907104 0.9139999747276306,-2.0999999046325684 C-3.2709999084472656,-4.517000198364258 -8.529000282287598,-6.802000045776367 -12.526000022888184,-8.178999900817871 C-12.756999969482422,-7.230999946594238 -12.819000244140625,-6.039999961853027 -13.010000228881836,-5.026000022888184z" color="rgb(0, 0, 0)" fill="rgb(0, 0, 0)"/></g><g opacity="1" transform="matrix(1, 0, 0, 1, 30.743, 31.673)" color="rgb(0, 0, 0)" fill="rgb(0, 0, 0)" stroke="none"><path fill="rgb(255, 201, 40)" fill-opacity="1" d=" M21.825000762939453,3.13100004196167 C21.03499984741211,2.200000047683716 18.835002899169922,0.2290019541978836 17.880002975463867,-0.7049980759620667 C17.182003021240234,-0.025998052209615707 16.739002227783203,0.899001955986023 15.96300220489502,1.5730019807815552 C16.8960018157959,2.478001832962036 18.774999618530273,4.173999786376953 19.538999557495117,5.072999954223633 C22.639999389648438,8.725000381469727 23.916000366210938,11.902999877929688 22.950000762939453,13.576000213623047 C20.51799964904785,17.790000915527344 6.583000183105469,13.942000389099121 -4.25,7.688000202178955 C-10.581999778747559,4.0320000648498535 -16.011999130249023,-0.2669999897480011 -19.538000106811523,-4.420000076293945 C-22.639999389648438,-8.071000099182129 -23.915000915527344,-11.25100040435791 -22.948999404907227,-12.923999786376953 C-22.29800033569336,-14.052000045776367 -20.54599952697754,-14.640000343322754 -18.02899932861328,-14.640000343322754 C-16.812999725341797,-14.640000343322754 -15.416000366210938,-14.50100040435791 -13.880000114440918,-14.220999717712402 C-12.71500015258789,-14.008000373840332 -12.605999946594238,-14.027999877929688 -11.351999282836914,-13.670999526977539 C-11.155999183654785,-14.677999496459961 -11.083999633789062,-15.720999717712402 -10.843999862670898,-16.670000076293945 C-12.136999130249023,-17.03299903869629 -12.133999824523926,-16.951000213623047 -13.340999603271484,-17.172000885009766 C-19.53499984741211,-18.30500030517578 -23.871000289916992,-17.327999114990234 -25.547000885009766,-14.423999786376953 C-27.224000930786133,-11.520000457763672 -25.902000427246094,-7.276000022888184 -21.825000762939453,-2.4769999980926514 C-18.08099937438965,1.930999994277954 -12.371999740600586,6.4629998207092285 -5.75,10.28600025177002 C2.309999942779541,14.940999984741211 11.553000450134277,18.30500030517578 18.054000854492188,18.30500030517578 C21.542999267578125,18.304000854492188 24.243999481201172,17.334999084472656 25.54800033569336,15.076000213623047 C27.224000930786133,12.17300033569336 25.902000427246094,7.929999828338623 21.825000762939453,3.13100004196167z" color="rgb(0, 0, 0)" stroke="none"/><path stroke-linecap="round" stroke-linejoin="round" fill-opacity="0" stroke="rgb(55, 70, 79)" stroke-opacity="1" stroke-width="1" d=" M21.825000762939453,3.13100004196167 C21.03499984741211,2.200000047683716 18.835002899169922,0.2290019541978836 17.880002975463867,-0.7049980759620667 C17.182003021240234,-0.025998052209615707 16.739002227783203,0.899001955986023 15.96300220489502,1.5730019807815552 C16.8960018157959,2.478001832962036 18.774999618530273,4.173999786376953 19.538999557495117,5.072999954223633 C22.639999389648438,8.725000381469727 23.916000366210938,11.902999877929688 22.950000762939453,13.576000213623047 C20.51799964904785,17.790000915527344 6.583000183105469,13.942000389099121 -4.25,7.688000202178955 C-10.581999778747559,4.0320000648498535 -16.011999130249023,-0.2669999897480011 -19.538000106811523,-4.420000076293945 C-22.639999389648438,-8.071000099182129 -23.915000915527344,-11.25100040435791 -22.948999404907227,-12.923999786376953 C-22.29800033569336,-14.052000045776367 -20.54599952697754,-14.640000343322754 -18.02899932861328,-14.640000343322754 C-16.812999725341797,-14.640000343322754 -15.416000366210938,-14.50100040435791 -13.880000114440918,-14.220999717712402 C-12.71500015258789,-14.008000373840332 -12.605999946594238,-14.027999877929688 -11.351999282836914,-13.670999526977539 C-11.155999183654785,-14.677999496459961 -11.083999633789062,-15.720999717712402 -10.843999862670898,-16.670000076293945 C-12.136999130249023,-17.03299903869629 -12.133999824523926,-16.951000213623047 -13.340999603271484,-17.172000885009766 C-19.53499984741211,-18.30500030517578 -23.871000289916992,-17.327999114990234 -25.547000885009766,-14.423999786376953 C-27.224000930786133,-11.520000457763672 -25.902000427246094,-7.276000022888184 -21.825000762939453,-2.4769999980926514 C-18.08099937438965,1.930999994277954 -12.371999740600586,6.4629998207092285 -5.75,10.28600025177002 C2.309999942779541,14.940999984741211 11.553000450134277,18.30500030517578 18.054000854492188,18.30500030517578 C21.542999267578125,18.304000854492188 24.243999481201172,17.334999084472656 25.54800033569336,15.076000213623047 C27.224000930786133,12.17300033569336 25.902000427246094,7.929999828338623 21.825000762939453,3.13100004196167z" color="rgb(0, 0, 0)" fill="rgb(0, 0, 0)"/></g></g></g><g transform="matrix(6, 0.00753982, -0.00753982, 6, 358.605, 347.235)" opacity="1" style="display: block;" color="rgb(0, 0, 0)" fill="rgb(0, 0, 0)" stroke="none"><g opacity="1" transform="matrix(0.999996, 0, 0, 0.999996, 56, 5)" color="rgb(0, 0, 0)" fill="rgb(0, 0, 0)" stroke="none"><path fill="rgb(238, 82, 80)" fill-opacity="1" d=" M2.5,0 C2.5,1.3799999952316284 1.3799999952316284,2.5 0,2.5 C-1.38100004196167,2.5 -2.5,1.3799999952316284 -2.5,0 C-2.5,-1.38100004196167 -1.38100004196167,-2.5 0,-2.5 C1.3799999952316284,-2.5 2.5,-1.38100004196167 2.5,0z" color="rgb(0, 0, 0)" stroke="none"/><path stroke-linecap="round" stroke-linejoin="round" fill-opacity="0" stroke="rgb(55, 70, 79)" stroke-opacity="1" stroke-width="1" d=" M2.5,0 C2.5,1.3799999952316284 1.3799999952316284,2.5 0,2.5 C-1.38100004196167,2.5 -2.5,1.3799999952316284 -2.5,0 C-2.5,-1.38100004196167 -1.38100004196167,-2.5 0,-2.5 C1.3799999952316284,-2.5 2.5,-1.38100004196167 2.5,0z" color="rgb(0, 0, 0)" fill="rgb(0, 0, 0)"/></g><g opacity="1" transform="matrix(0.999996, 0, 0, 0.999996, 5, 58)" color="rgb(0, 0, 0)" fill="rgb(0, 0, 0)" stroke="none"><path fill="rgb(238, 82, 80)" fill-opacity="1" d=" M2.5,0 C2.5,1.3799999952316284 1.3799999952316284,2.5 0,2.5 C-1.38100004196167,2.5 -2.5,1.3799999952316284 -2.5,0 C-2.5,-1.38100004196167 -1.38100004196167,-2.5 0,-2.5 C1.3799999952316284,-2.5 2.5,-1.38100004196167 2.5,0z" color="rgb(0, 0, 0)" stroke="none"/><path stroke-linecap="round" stroke-linejoin="round" fill-opacity="0" stroke="rgb(55, 70, 79)" stroke-opacity="1" stroke-width="1" d=" M2.5,0 C2.5,1.3799999952316284 1.3799999952316284,2.5 0,2.5 C-1.38100004196167,2.5 -2.5,1.3799999952316284 -2.5,0 C-2.5,-1.38100004196167 -1.38100004196167,-2.5 0,-2.5 C1.3799999952316284,-2.5 2.5,-1.38100004196167 2.5,0z" color="rgb(0, 0, 0)" fill="rgb(0, 0, 0)"/></g></g></g></g></g></g></g></svg>